<?xml version="1.0" encoding="utf-8"?>
<!-- Generator: Adobe Illustrator 25.0.1, SVG Export Plug-In . SVG Version: 6.00 Build 0)  -->
<svg version="1.0" id="Layer_1" xmlns="http://www.w3.org/2000/svg" xmlns:xlink="http://www.w3.org/1999/xlink" x="0px" y="0px"
	 viewBox="0 0 306 235" style="enable-background:new 0 0 306 235;" xml:space="preserve">
<style type="text/css">
	.st0{fill: #fff;}
	.st1{fill:none;}
</style>
<path class="st0" d="M105.1,70.6c-19.2,12.7-24.5,38.5-11.8,57.7c11.6,17.6,34.7,23.8,53.5,14.3l0,0h-0.1
	c20.5,10.5,45.6,2.4,56.1-18.1c9.7-19,3.5-42.2-14.3-53.9c-1.2-23-20.7-40.7-43.8-39.6C123.3,32.1,106.2,49.1,105.1,70.6L105.1,70.6
	z M114.6,65.8c3.8-17.8,21.3-29.1,39.1-25.3s29.1,21.3,25.3,39.1c-1.4,6.7-4.9,12.7-10,17.4l-4.6-2.6l-8.8,5.1l14.2,8.1
	c9.2-6.1,15.6-15.6,17.9-26.4c13.4,12.3,14.2,33.1,1.9,46.5c-12.3,13.4-33.1,14.2-46.5,1.9c-5-4.6-8.4-10.6-9.9-17.2l4.7-2.7V99.4
	l-14.2,8.1c0.6,11.2,5.8,21.7,14.2,29.1l0,0c-17.3,5.4-35.8-4.2-41.2-21.5c-5.4-17.3,4.2-35.8,21.5-41.2c6.4-2,13.3-2,19.7,0v5.3
	l8.8,5V68C136.8,63,125.2,62.2,114.6,65.8L114.6,65.8z M86.5,183.3c0,11.5,8.8,20.6,20,20.6c3-0.1,6-0.8,8.7-2v-10.5
	c-2.5,1.6-5.5,2.5-8.5,2.6c-5.8,0-10.1-4.5-10.1-10.8c0-6.4,4.2-11,10.2-11c3,0,6,0.9,8.4,2.8v-10.7c-2.7-1.3-5.7-2-8.8-2
	C95.2,162.2,86.4,171.5,86.5,183.3L86.5,183.3z M136.8,191.2c0,3.3-1.6,5-4.4,5c-3,0-4.4-1.6-4.4-5v-15.4h-8.9v17.2
	c0,7.2,4.4,11.1,13.3,11.1s13.3-3.8,13.3-11.1v-17.2h-8.9V191.2z M204.4,187.9c-1.3-0.9-2.8-1.6-4.4-2c-1.4-0.3-2.7-0.7-4-1.4
	c-0.3-0.3-0.5-0.7-0.5-1.1c0-1.1,1.1-2,2.8-2c1.8,0,3.5,0.5,5,1.4l3-6.2c-2.6-1.2-5.4-1.8-8.3-1.7c-7.1,0-11.5,3.8-11.5,9.7
	c0,2.1,0.9,4,2.6,5.3c1.5,1,3.2,1.8,5,2.3c2.4,0.6,3,0.8,3.5,1.2c0.3,0.4,0.4,0.8,0.4,1.3c0,1.2-1.2,2-2.8,2
	c-2.6-0.2-5.2-1.1-7.3-2.7l-3.3,6.7c3.1,2,6.6,3.1,10.3,3.1c7.5,0,12.2-4,12.2-10.2C207.2,191.4,206.2,189.3,204.4,187.9
	L204.4,187.9z"/>
<rect x="151.6" y="158.9" class="st0" width="9.4" height="43.8"/>
<polygon class="st0" points="177.9,167.5 168.4,167.5 168.4,175.8 164.6,175.8 164.6,183.6 168.4,183.6 168.4,203 177.9,203 
	177.9,183.6 184,183.6 184,175.8 177.9,175.8 "/>
<circle class="st0" cx="215.7" cy="199.5" r="3.9"/>
<rect x="78" y="23" class="st1" width="32" height="auto"/>
</svg>
